<svg xmlns="http://www.w3.org/2000/svg" fill="#ffffff" viewBox="0 0 400 400">
  <path fill-rule="evenodd" d="M138.09 42.244C33.275 70.422-17.808 177.607 28.723 271.723 82.93 381.366 237.914 391.44 305.596 289.72c18.194-27.343 81.913-185.177 81.889-202.839-.027-19.13-9.562-34.397-26.895-43.058l-9.527-4.761-100.922.095c-94.335.089-101.649.29-112.051 3.087m57.984 30.435c105.486 22.344 142.16 149.363 64.186 222.304C178.119 371.822 43.465 312.827 43.465 200c0-81.246 74.944-143.772 152.609-127.321m-35.136 15.84c-9.478 3.122-14.063 9.368-14.063 19.155 0 2.902-1.193 5.484-3.175 6.873-9.421 6.599-16.658 19.289-17.727 31.086-.571 6.304-2.361 17.012-3.977 23.795-2.332 9.791-2.654 14.341-1.559 22.074 1.155 8.15.865 11.233-1.775 18.885-1.735 5.029-4.566 14.769-6.292 21.644-5.106 20.338-5.994 22.324-11.51 25.733-2.855 1.764-7.857 7.079-11.115 11.81l-5.925 8.602 2.651 8.408c4.783 15.174 20.625 18.841 20.51 4.748-.059-7.23 1.215-8.463 8.776-8.496 5.819-.024 15.363-15.807 19.857-32.836 1.792-6.792 11.238-29.948 13.026-31.932 1.623-1.802 7.418 3.386 15.596 13.963 3.322 4.297 8.209 10.361 10.86 13.475 5.153 6.055 11.302 25.893 13.9 44.845 1.503 10.961 4.007 14.654 13.076 19.283 13.35 6.813 18.272 1.179 11.187-12.803-2.698-5.325-4.608-12.487-5.554-20.832-3.515-30.997-3.445-30.748-12.002-42.688-6.795-9.481-7.92-12.025-7.259-16.407.891-5.908-14.79-27.576-20.085-27.751-4.047-.134-3.802-10.346.302-12.543 2.109-1.128 3.182-3.616 3.515-8.153l.48-6.529 12.406-2.636c9.635-2.047 13.218-3.58 16.042-6.863 3.061-3.558 4.68-4.151 10.24-3.75 6.211.449 6.664.199 7.602-4.179.548-2.561 1.08-3.689 1.182-2.508.374 4.352 8.484 20.508 10.294 20.508 3.641 0 3.634-1.89-.031-9.107-5.824-11.468-6.632-16.497-2.436-15.166 2.598.825 4.506-.131 8.232-4.124 4.277-4.582 6.075-5.308 15.191-6.136 7.232-.657 9.342-1.284 7.02-2.084-2.174-.75-3.32-2.471-3.32-4.986 0-4.355-2.024-7.052-3.078-4.1-.384 1.074-2.69 1.953-5.125 1.953s-4.749-.879-5.143-1.953c-.573-1.563-1.13-1.563-2.787 0-3.081 2.907-7.365 2.365-9.257-1.172-1.56-2.913-1.927-2.959-5.42-.67-4.575 2.998-17.754 1.661-20.726-2.103-1.581-2.001-2.647-2.112-5.933-.615-2.203 1.004-5.148 1.826-6.544 1.826s-3.779 1.123-5.297 2.496c-4.394 3.977-5.855 1.406-4.939-8.691 1.238-13.659-8.477-23.11-19.891-19.349m32.812 41.105l3.906 1.187-4.398 1.782c-2.42.98-5.177 1.782-6.127 1.782-.951 0-2.855 1.019-4.231 2.265-1.727 1.563-3.218 1.796-4.811.753-1.925-1.261-1.581-2.155 2.076-5.39 4.524-4.002 6.886-4.415 13.585-2.379"/>
</svg>