<svg xmlns="http://www.w3.org/2000/svg" class="icon" fill="#ffffff" viewBox="0 0 1024 1024">
  <path d="M526.158 1.086c7.84 18.232 38.258 3.59 51.813 12.8l-3.212 2.456 1.134 3.92c-4.723-.566-7.793.567-8.313 4.251 10.675 4.062 20.074 1.18 29-2.125 9.966 7.604 18.137 16.861 18.704 34.1 12.61-3.305 26.497-5.336 43.453-4.297 8.407-9.21 8.124-27.3 6.282-36.132 40.43-4.912 85.11-.803 122.33 4.203l-1.087 3.92 3.117 2.504c-1.984 2.88-5.526 4.203-8.265 6.376l-2.362-3.212-3.826.992c-3.306-1.936-7.982-3.117-8.36 0 1.984.047 1.606 2.598 2.078 4.251h4.157c2.03-4.25 4.44-1.086 4.44-1.086l3.873-1.087c1.417 10.627 9.588-2.692 10.343-6.376l3.118-2.503-1.134-3.873c5.904-1.7 5.337 2.975 10.39 2.172l-1.038 3.873 3.117 2.504c-7.84 8.926 16.248 11.76 18.656 4.25-5.242-.188-9.87-1.227-12.374-4.25l3.117-2.504-1.086-3.873c11.146 2.031 23.663 2.693 37.313 2.079.425-1.748 2.078-2.079 2.078-4.251l3.117 1.086 3.117-1.086c2.787 2.172 6.282 3.495 8.266 6.423 11.855 2.22 12.138-7.368 20.782-8.501 10.957 10.721 37.265 18.987 49.734 4.25 1.276 11.525 16.91.898 29.048 4.251 3.117 13.367 20.168 14.595 28.953 21.254 3.495 2.598 2.597 6.943 6.329 6.33-4.865 15.68 1.18 42.413-8.36 53.23 16.342 79.348 6.848 159.972 6.281 248.956-10.863-.472-20.734 0-29.047 2.078-.189 12.28 5.668 18.279 8.313 27.678-27.111 11.619-14.028 52.143 6.234 61.684-2.456 20.215 1.512 33.865 10.391 42.603-6.376 10.863-10.06 28.386-4.156 40.383-7.321 9.352-6.424 27.441-6.235 44.68-6.518 2.787-12.61-11.477-14.452 0-.709 15.54 24.985 8.03 31.078 10.628-1.37 136.168 2.786 278.051-2.078 410.63-26.78-12.847-75.287-41.044-107.782-14.878 5.242 1.747 11.099 2.834 18.703 2.03l-1.039 3.307 3.117.992c-2.88 1.322-.283 8.218-4.109 8.596-6.423 1.464-4.014-5.904-10.39-4.25-19.177 18.892-61.402 12.09-82.892 0-16.814 6.564-40.524 4.014-49.829-8.597-7.935 3.212-14.736 7.652-20.687 12.8-19.932-2.078-32.401 3.637-47.704 6.376-3.59-2.125-2.598-12.47-8.313-6.376l-2.409-3.212-3.873.992c-4.392-4.96-17.003-.567-18.656 4.298l-3.873-1.04-2.409 3.213c-28.433 5.526-71.13-3.59-93.282 8.454l-3.07-.945-3.117-1.039c-5.81-3.259-8.55.662-16.531-2.267-.047 3.779 1.464 5.574 4.156 6.518l-1.133 3.873 3.164 2.55c-11.666 8.36-19.365-5.714-24.844-10.626-6.706.141-1.417 12.61-10.39 10.627-8.88-13.13-35.66-15.823-55.923-10.627-7.037 4.864 9.494 8.218 2.031 12.705-10.438-2.22-11.807 4.817-20.687 4.25-5.479-16.389-18.09-25.41-24.844-40.477l-2.172-.897-2.031.992c.189-2.976.283-5.951-2.078-6.376.283 1.794-.898 1.983-2.126 2.078v4.25l-1.039 2.126 1.04 2.125c-8.314 2.126-18.185 2.645-29.001 2.173-6.565-.33-6.14-7.982-12.422-8.549-6.518-.378-.897 11.902-10.344 8.549-9.965-1.89-8.69-15.256-16.625-19.129-9.305-1.133-5.762 10.958-10.344 14.784-2.172-4.912-7.037-6.896-6.187-14.784-9.21.473-9.305 10.25-14.5 14.784-2.031-4.346-7.935-4.582-14.5-4.204l-3.07-1.133-.992 3.164c-4.298-1.086-4.11-6.376-8.313-2.03-5.715-.946-1.936 7.887-6.187 8.548-.756-10.58-5.432 1.7-10.344 0-1.228-6.565-.566-15.067-8.312-14.878-3.779 2.503-1.37 11.241-10.344 8.502-4.298-.614-.52-9.352-6.187-8.502-2.976 6.187-8.833 9.4-18.704 8.502-3.07 2.55-2.409 8.927-8.218 8.596-.331-9.54.755-20.64-8.266-21.254-10.863-3.354-1.37 14.264-10.438 12.705-9.305 3.259 1.134-13.886-8.218-10.674-8.171-.567-.614 15.02-6.188 17.097-.897-6.376-9.824-4.109-12.421-8.548l.991-3.212-3.07-1.04c.378-1.747 2.079-2.125 2.079-4.297-5.149-.236-10.108-.33-10.439 4.298l-3.07 1.039 1.087 3.212c-16.484 1.983-27.536-1.512-37.313-6.424-2.928 6.14 5.62 10.816 0 12.753-7.699-9.777-22.671-.284-31.126 2.172.614-5.668.756-10.721-6.187-8.549l-3.07-1.133-1.134 3.164c-2.03 0-1.558-2.55-2.03-4.203-11.005-3.354-10.722 15.775-16.579 10.721-3.92-3.164-.236-13.933-4.156-17.098-8.218-1.464-23.002 3.779-24.844-4.25 18.562-57.009-7.226-132.768 10.344-195.68 7.462-1.748 10.06 4.77 14.5 0-1.606-40.666 4.203-73.681 4.156-112.742-8.124-.141-15.539-1.039-20.734-4.25-3.59-36.369-8.69-90.26 0-125.542 6.329-1.558 3.92 5.857 10.296 4.299v-4.204l2.787-2.645-.756-3.826c5.007-2.314 6.99 9.116 10.108 2.078-3.59-11.807-.426-29.141 0-40.43-22.388-9.493-26.214-53.985-12.422-76.562-7.605-23.427-10.958-51.104-14.406-78.735-3.4 1.134-11.524.709-10.344-12.8 4.96-.897 4.44 3.92 10.344 2.126-6.045-15.256 1.464-43.406-2.125-59.512-.048-.33-3.779.237-4.157 0l-.992-3.211-3.07-1.087v-2.125l3.07-1.04.992-3.164c1.89 14.028 9.069 1.465 0-2.078l-.992-3.212-3.07 1.04c-1.228-6.755 3.92-6.613 0-10.627 3.732-.237 4.346 2.597 8.219 2.078 2.928-50.16 7.132-98.997 6.187-153.125-.85-4.156-7.982-1.7-6.187-8.596.992-18.845 4.628-34.951 6.187-53.182 17.665 17.475 54.269 8.832 68.486-6.33 1.18 5.149 1.747 10.864 8.218 10.628 12.091-.378 24.324-.898 31.078 4.203 3.165-2.503 2.503-8.88 8.313-8.501 3.542 1.275-.189 10.06 4.109 10.674 4.77-8.88 19.648-11.524 20.83 2.173l.99 3.164 1.04 3.165h-2.03v6.423h6.186c.19-3.023.331-6.045-2.078-6.423l1.087-3.92-3.118-2.41c11.477-15.68 44.02 2.976 58-8.548 9.73 6.896 29.615 8.88 35.235-2.173 17.24 30.37 77.649 3.684 107.782 21.254 4.865-2.125 2.55-11.571 6.282-14.878 7.557.709 13.46-.33 18.656-2.078 2.031-2.928 3.401-6.47 6.188-8.549l2.361 3.165 3.873-1.087c6.613 7.463.803-16.011 8.313-14.783 7.84 1.37 21.868 4.676 29 0-.614-3.495 1.937-3.731 2.078-6.423h2.031v2.172c11.383 3.07 22.624 6.518 35.235 8.455l-1.086 3.873 3.164 2.503c-7.274 6.896 9.54 9.73 12.422 6.376.047-3.637-1.511-5.479-4.11-6.423l1.04-3.165-1.04-3.164c6.33-4.062 16.768-3.92 20.64-10.675h2.126zm-87.142 23.427h6.282c.047-3.637-1.606-5.432-4.156-6.423.141 2.975-.992 4.723-2.126 6.423zm33.204-2.125c2.078 0 2.503 1.747 4.156 2.125-.141-3.306.331-7.368-4.156-6.376v4.25zm74.626 4.298c4.959-5.148-6.849-5.526-6.235-2.173 0-.142 6.99 1.323 6.235 2.173zm143.11 2.125h4.063v-4.298h-4.062v4.298zM121.906 41.564c.094-6.471-7.227-5.29-12.422-6.33-1.181 7.558 6.187 6.377 12.422 6.33zm744.178 0h6.234v-6.377h-6.234v6.377zM84.592 43.642h6.282v-6.376h-6.282v6.376zm130.642 4.298h6.187v-6.424h-6.187v6.424zm190.72 6.376c.284-2.55 3.637-4.865 0-6.376-.33 2.503-3.73 4.77 0 6.376zm-91.25 204.229c-6-1.842-2.268-3.165-2.032-8.502-12.422-10.202-29.897-21.962-47.75-34.054-24.703-16.767-41.045-37.36-76.657-31.928-21.018 3.259-34.149 15.114-58.048 19.176 16.626 25.694 39.202 46.57 60.079 68.06 61.117 62.676 119.637 132.06 180.376 197.853 6.093 2.172 10.155 3.07 12.47 4.25l-1.087 3.165 3.165-1.039c-1.512 12.091 9.918 16.295 18.656 25.6 6.707 7.226 11.194 17.664 16.578 23.379 4.393 4.723 19.79 9.54 18.61 21.254 13.98 3.826 19.176 19.554 29.047 29.85 5.715 5.857 15.303 9.163 20.782 14.831 1.558 1.511 1.18 7.368 2.03 8.549 2.362 2.928 5.952 3.212 8.313 6.376 7.321 9.919 17.57 19.46 26.97 29.85 6.47 3.543 5.856-10.627 8.265-4.25 6.376 2.88.661 5.95 2.078 14.83 6.707 5.951 10.675 14.595 18.657 19.176-.378-2.503.472-3.825 1.983-4.25 3.448 7.934 7.368 15.113 14.548 19.175-.567-6.234.566-7.273 4.156-4.25 4.345 8.218-3.07 3.495-2.03 12.8 26.874 32.825 64.092 64.99 93.281 99.988 9.872 11.855 22.766 35.896 37.313 44.681 27.347 16.531 89.881 11.336 126.438 10.627-.33-4.534 3.401-2.503 6.282-6.47 12.753-17.523 22.34-54.506 33.157-89.362 10.249-33.062 23.238-58.473 20.687-89.315-.283-2.692-2.881-10.91-4.156-12.8-.709-.992-17.429-11.146-22.766-14.878-26.166-18.467-53.607-36.84-82.891-53.135l.992-3.259-3.023 1.134c-.567-.756.661-3.826 0-4.204-132.815-95.171-271.108-183.352-404.206-278.76H362.5c-5.431-16.39-20.404-16.861-29.141-17.145 10.202-7.604-9.919-13.225-16.626-16.956l-.992-3.212-1.039 3.165zm458.144 102.067c.756 2.834 3.637 3.353 4.11 6.423 10.674-3.636 9.493 5.668 20.734 10.627 4.723-47.42 21.632-103.342 20.687-142.591.614 4.345-5.998-.425-6.234-2.173 4.156.709 6.47-.425 6.234-4.203-19.27-17.004-38.021-39.533-66.36-40.478-21.538-.708-49.168 12.658-74.484 19.176-19.601 4.96-38.635 10.013-56.016 14.878-5.763 1.653-14.878-1.417-16.673 6.47 55.591 44.21 111.23 90.449 165.877 129.793l-1.087 3.164 3.212-1.086zM240.03 856.306c52.474 4.109 107.782-30.512 163.846-42.509-2.22-4.392-5.243-11.666-8.313-14.83 1.04 1.133-1.37 2.645-2.03 2.125-15.492-12.422-29.095-32.637-45.579-48.932-44.586-44.02-95.218-93.14-140.938-136.215-15.681 38.4-32.26 79.963-49.782 123.321-5.385 13.461-16.484 30.984-14.5 42.556 2.456 13.933 51.435 43.264 66.36 57.433 8.312 7.935 16.861 13.839 29.094 16.956l.992 3.307.85-3.212zM526.158 1.086c7.84 18.232 38.258 3.59 51.813 12.8l-3.212 2.456 1.134 3.92c-4.723-.566-7.793.567-8.313 4.251 10.675 4.062 20.074 1.18 29-2.125 9.966 7.604 18.137 16.861 18.704 34.1 12.61-3.305 26.497-5.336 43.453-4.297 8.407-9.21 8.124-27.3 6.282-36.132 40.43-4.912 85.11-.803 122.33 4.203l-1.087 3.92 3.117 2.504c-1.984 2.88-5.526 4.203-8.265 6.376l-2.362-3.212-3.826.992c-3.306-1.936-7.982-3.117-8.36 0 1.984.047 1.606 2.598 2.078 4.251h4.157c2.03-4.25 4.44-1.086 4.44-1.086l3.873-1.087c1.417 10.627 9.588-2.692 10.343-6.376l3.118-2.503-1.134-3.873c5.904-1.7 5.337 2.975 10.39 2.172l-1.038 3.873 3.117 2.504c-7.84 8.926 16.248 11.76 18.656 4.25-5.242-.188-9.87-1.227-12.374-4.25l3.117-2.504-1.086-3.873c11.146 2.031 23.663 2.693 37.313 2.079.425-1.748 2.078-2.079 2.078-4.251l3.117 1.086 3.117-1.086c2.787 2.172 6.282 3.495 8.266 6.423 11.855 2.22 12.138-7.368 20.782-8.501 10.957 10.721 37.265 18.987 49.734 4.25 1.276 11.525 16.91.898 29.048 4.251 3.117 13.367 20.168 14.595 28.953 21.254 3.495 2.598 2.597 6.943 6.329 6.33-4.865 15.68 1.18 42.413-8.36 53.23 16.342 79.348 6.848 159.972 6.281 248.956-10.863-.472-20.734 0-29.047 2.078-.189 12.28 5.668 18.279 8.313 27.678-27.111 11.619-14.028 52.143 6.234 61.684-2.456 20.215 1.512 33.865 10.391 42.603-6.376 10.863-10.06 28.386-4.156 40.383-7.321 9.352-6.424 27.441-6.235 44.68-6.518 2.787-12.61-11.477-14.452 0-.709 15.54 24.985 8.03 31.078 10.628-1.37 136.168 2.786 278.051-2.078 410.63-26.78-12.847-75.287-41.044-107.782-14.878 5.242 1.747 11.099 2.834 18.703 2.03l-1.039 3.307 3.117.992c-2.88 1.322-.283 8.218-4.109 8.596-6.423 1.464-4.014-5.904-10.39-4.25-19.177 18.892-61.402 12.09-82.892 0-16.814 6.564-40.524 4.014-49.829-8.597-7.935 3.212-14.736 7.652-20.687 12.8-19.932-2.078-32.401 3.637-47.704 6.376-3.59-2.125-2.598-12.47-8.313-6.376l-2.409-3.212-3.873.992c-4.392-4.96-17.003-.567-18.656 4.298l-3.873-1.04-2.409 3.213c-28.433 5.526-71.13-3.59-93.282 8.454l-3.07-.945-3.117-1.039c-5.81-3.259-8.55.662-16.531-2.267-.047 3.779 1.464 5.574 4.156 6.518l-1.133 3.873 3.164 2.55c-11.666 8.36-19.365-5.714-24.844-10.626-6.706.141-1.417 12.61-10.39 10.627-8.88-13.13-35.66-15.823-55.923-10.627-7.037 4.864 9.494 8.218 2.031 12.705-10.438-2.22-11.807 4.817-20.687 4.25-5.479-16.389-18.09-25.41-24.844-40.477l-2.172-.897-2.031.992c.189-2.976.283-5.951-2.078-6.376.283 1.794-.898 1.983-2.126 2.078v4.25l-1.039 2.126 1.04 2.125c-8.314 2.126-18.185 2.645-29.001 2.173-6.565-.33-6.14-7.982-12.422-8.549-6.518-.378-.897 11.902-10.344 8.549-9.965-1.89-8.69-15.256-16.625-19.129-9.305-1.133-5.762 10.958-10.344 14.784-2.172-4.912-7.037-6.896-6.187-14.784-9.21.473-9.305 10.25-14.5 14.784-2.031-4.346-7.935-4.582-14.5-4.204l-3.07-1.133-.992 3.164c-4.298-1.086-4.11-6.376-8.313-2.03-5.715-.946-1.936 7.887-6.187 8.548-.756-10.58-5.432 1.7-10.344 0-1.228-6.565-.566-15.067-8.312-14.878-3.779 2.503-1.37 11.241-10.344 8.502-4.298-.614-.52-9.352-6.187-8.502-2.976 6.187-8.833 9.4-18.704 8.502-3.07 2.55-2.409 8.927-8.218 8.596-.331-9.54.755-20.64-8.266-21.254-10.863-3.354-1.37 14.264-10.438 12.705-9.305 3.259 1.134-13.886-8.218-10.674-8.171-.567-.614 15.02-6.188 17.097-.897-6.376-9.824-4.109-12.421-8.548l.991-3.212-3.07-1.04c.378-1.747 2.079-2.125 2.079-4.297-5.149-.236-10.108-.33-10.439 4.298l-3.07 1.039 1.087 3.212c-16.484 1.983-27.536-1.512-37.313-6.424-2.928 6.14 5.62 10.816 0 12.753-7.699-9.777-22.671-.284-31.126 2.172.614-5.668.756-10.721-6.187-8.549l-3.07-1.133-1.134 3.164c-2.03 0-1.558-2.55-2.03-4.203-11.005-3.354-10.722 15.775-16.579 10.721-3.92-3.164-.236-13.933-4.156-17.098-8.218-1.464-23.002 3.779-24.844-4.25 18.562-57.009-7.226-132.768 10.344-195.68 7.462-1.748 10.06 4.77 14.5 0-1.606-40.666 4.203-73.681 4.156-112.742-8.124-.141-15.539-1.039-20.734-4.25-3.59-36.369-8.69-90.26 0-125.542 6.329-1.558 3.92 5.857 10.296 4.299v-4.204l2.787-2.645-.756-3.826c5.007-2.314 6.99 9.116 10.108 2.078-3.59-11.807-.426-29.141 0-40.43-22.388-9.493-26.214-53.985-12.422-76.562-7.605-23.427-10.958-51.104-14.406-78.735-3.4 1.134-11.524.709-10.344-12.8 4.96-.897 4.44 3.92 10.344 2.126-6.045-15.256 1.464-43.406-2.125-59.512-.048-.33-3.779.237-4.157 0l-.992-3.211-3.07-1.087v-2.125l3.07-1.04.992-3.164c1.89 14.028 9.069 1.465 0-2.078l-.992-3.212-3.07 1.04c-1.228-6.755 3.92-6.613 0-10.627 3.732-.237 4.346 2.597 8.219 2.078 2.928-50.16 7.132-98.997 6.187-153.125-.85-4.156-7.982-1.7-6.187-8.596.992-18.845 4.628-34.951 6.187-53.182 17.665 17.475 54.269 8.832 68.486-6.33 1.18 5.149 1.747 10.864 8.218 10.628 12.091-.378 24.324-.898 31.078 4.203 3.165-2.503 2.503-8.88 8.313-8.501 3.542 1.275-.189 10.06 4.109 10.674 4.77-8.88 19.648-11.524 20.83 2.173l.99 3.164 1.04 3.165h-2.03v6.423h6.186c.19-3.023.331-6.045-2.078-6.423l1.087-3.92-3.118-2.41c11.477-15.68 44.02 2.976 58-8.548 9.73 6.896 29.615 8.88 35.235-2.173 17.24 30.37 77.649 3.684 107.782 21.254 4.865-2.125 2.55-11.571 6.282-14.878 7.557.709 13.46-.33 18.656-2.078 2.031-2.928 3.401-6.47 6.188-8.549l2.361 3.165 3.873-1.087c6.613 7.463.803-16.011 8.313-14.783 7.84 1.37 21.868 4.676 29 0-.614-3.495 1.937-3.731 2.078-6.423h2.031v2.172c11.383 3.07 22.624 6.518 35.235 8.455l-1.086 3.873 3.164 2.503c-7.274 6.896 9.54 9.73 12.422 6.376.047-3.637-1.511-5.479-4.11-6.423l1.04-3.165-1.04-3.164c6.33-4.062 16.768-3.92 20.64-10.675h2.126zm-87.142 23.427h6.282c.047-3.637-1.606-5.432-4.156-6.423.141 2.975-.992 4.723-2.126 6.423zm33.204-2.125c2.078 0 2.503 1.747 4.156 2.125-.141-3.306.331-7.368-4.156-6.376v4.25zm74.626 4.298c4.959-5.148-6.849-5.526-6.235-2.173 0-.142 6.99 1.323 6.235 2.173zm143.11 2.125h4.063v-4.298h-4.062v4.298zM121.906 41.564c.094-6.471-7.227-5.29-12.422-6.33-1.181 7.558 6.187 6.377 12.422 6.33zm744.178 0h6.234v-6.377h-6.234v6.377zM84.592 43.642h6.282v-6.376h-6.282v6.376zm130.642 4.298h6.187v-6.424h-6.187v6.424zm190.72 6.376c.284-2.55 3.637-4.865 0-6.376-.33 2.503-3.73 4.77 0 6.376zm-91.25 204.229c-6-1.842-2.268-3.165-2.032-8.502-12.422-10.202-29.897-21.962-47.75-34.054-24.703-16.767-41.045-37.36-76.657-31.928-21.018 3.259-34.149 15.114-58.048 19.176 16.626 25.694 39.202 46.57 60.079 68.06 61.117 62.676 119.637 132.06 180.376 197.853 6.093 2.172 10.155 3.07 12.47 4.25l-1.087 3.165 3.165-1.039c-1.512 12.091 9.918 16.295 18.656 25.6 6.707 7.226 11.194 17.664 16.578 23.379 4.393 4.723 19.79 9.54 18.61 21.254 13.98 3.826 19.176 19.554 29.047 29.85 5.715 5.857 15.303 9.163 20.782 14.831 1.558 1.511 1.18 7.368 2.03 8.549 2.362 2.928 5.952 3.212 8.313 6.376 7.321 9.919 17.57 19.46 26.97 29.85 6.47 3.543 5.856-10.627 8.265-4.25 6.376 2.88.661 5.95 2.078 14.83 6.707 5.951 10.675 14.595 18.657 19.176-.378-2.503.472-3.825 1.983-4.25 3.448 7.934 7.368 15.113 14.548 19.175-.567-6.234.566-7.273 4.156-4.25 4.345 8.218-3.07 3.495-2.03 12.8 26.874 32.825 64.092 64.99 93.281 99.988 9.872 11.855 22.766 35.896 37.313 44.681 27.347 16.531 89.881 11.336 126.438 10.627-.33-4.534 3.401-2.503 6.282-6.47 12.753-17.523 22.34-54.506 33.157-89.362 10.249-33.062 23.238-58.473 20.687-89.315-.283-2.692-2.881-10.91-4.156-12.8-.709-.992-17.429-11.146-22.766-14.878-26.166-18.467-53.607-36.84-82.891-53.135l.992-3.259-3.023 1.134c-.567-.756.661-3.826 0-4.204-132.815-95.171-271.108-183.352-404.206-278.76H362.5c-5.431-16.39-20.404-16.861-29.141-17.145 10.202-7.604-9.919-13.225-16.626-16.956l-.992-3.212-1.039 3.165zm458.144 102.067c.756 2.834 3.637 3.353 4.11 6.423 10.674-3.636 9.493 5.668 20.734 10.627 4.723-47.42 21.632-103.342 20.687-142.591.614 4.345-5.998-.425-6.234-2.173 4.156.709 6.47-.425 6.234-4.203-19.27-17.004-38.021-39.533-66.36-40.478-21.538-.708-49.168 12.658-74.484 19.176-19.601 4.96-38.635 10.013-56.016 14.878-5.763 1.653-14.878-1.417-16.673 6.47 55.591 44.21 111.23 90.449 165.877 129.793l-1.087 3.164 3.212-1.086zM240.03 856.306c52.474 4.109 107.782-30.512 163.846-42.509-2.22-4.392-5.243-11.666-8.313-14.83 1.04 1.133-1.37 2.645-2.03 2.125-15.492-12.422-29.095-32.637-45.579-48.932-44.586-44.02-95.218-93.14-140.938-136.215-15.681 38.4-32.26 79.963-49.782 123.321-5.385 13.461-16.484 30.984-14.5 42.556 2.456 13.933 51.435 43.264 66.36 57.433 8.312 7.935 16.861 13.839 29.094 16.956l.992 3.307.85-3.212z"/>
</svg>
